<?xml version="1.0" encoding="utf-8"?>
<!-- Generator: Adobe Illustrator 17.0.0, SVG Export Plug-In . SVG Version: 6.00 Build 0)  -->
<!DOCTYPE svg PUBLIC "-//W3C//DTD SVG 1.1//EN" "http://www.w3.org/Graphics/SVG/1.1/DTD/svg11.dtd">
<svg version="1.1" id="Layer_1" xmlns="http://www.w3.org/2000/svg" xmlns:xlink="http://www.w3.org/1999/xlink" x="0px" y="0px"
	 width="512px" height="512px" viewBox="0 0 512 512" enable-background="new 0 0 512 512" xml:space="preserve">
<g>
	<g>
		<g>
			<g>
				<g>
					<path fill="#344E5D" d="M3.967,255.998c0-139.204,112.84-252.037,252.037-252.037c139.188,0,252.029,112.832,252.029,252.037
						c0,139.192-112.84,252.04-252.029,252.04C116.808,508.038,3.967,395.191,3.967,255.998z"/>
				</g>
			</g>
		</g>
	</g>
	<g>
		<g>
			<g>
				<path fill="#E84849" d="M278.202,410.323c0,10.431-8.464,18.895-18.895,18.895H119.194c-10.439,0-18.895-8.464-18.895-18.895
					l67.371-130.281c0-10.431,8.449-18.887,18.895-18.887h5.371c10.438,0,18.895,8.456,18.895,18.887L278.202,410.323z"/>
			</g>
			<g>
				<path fill="#DB3F3E" d="M268.79,406.523c0,9.817-7.563,17.791-16.89,17.791H126.593c-9.319,0-16.881-7.974-16.881-17.791
					l19.408-39.531c0,0-1.088-9.653,39.616-3.537c40.689,6.125,75.595-6.746,75.595-6.746L268.79,406.523z"/>
			</g>
			<g>
				<path fill="#E84849" d="M206.843,280.501c0,5.347-2.612,9.684-5.837,9.684h-24.103c-3.233,0-5.845-4.337-5.845-9.684v-90.374
					c0-5.351,2.611-9.688,5.845-9.688h24.103c3.225,0,5.837,4.337,5.837,9.688V280.501z"/>
			</g>
			<g>
				<path fill="#E84849" d="M188.967,162.197c-20.364,0-28.432,2.39-28.432,10.528c0,0.233,0.062,0.466,0.086,0.7
					c0.917,7.807,8.581,22.462,28.346,22.462c19.75,0,27.406-14.655,28.323-22.462c0.031-0.233,0.085-0.466,0.085-0.7
					C217.375,164.587,209.315,162.197,188.967,162.197z"/>
				<g>
					<path fill="#DC3A3A" d="M188.967,176.23c15.257,0,21.312-1.792,21.312-7.893c0-1.846-5.713-4.205-20.278-4.205
						c-14.558,0-22.369,1.314-22.369,4.205C167.631,174.438,173.694,176.23,188.967,176.23z"/>
				</g>
			</g>
			<g>
				<g>
					<path fill="#CBE9E6" d="M212.634,128.872c0,12.152-9.855,22.015-22.019,22.015c-12.156,0-22.011-9.863-22.011-22.015
						c0-12.156,9.856-22.012,22.011-22.012C202.778,106.861,212.634,116.716,212.634,128.872z"/>
				</g>
				<g>
					<path fill="#DFF1EF" d="M173.344,131.581c-3.506-4.116,1.516-14.332,5.627-17.83c4.119-3.513,13.633-6.393,17.123-2.273
						C199.615,115.585,176.842,135.696,173.344,131.581z"/>
				</g>
			</g>
			<g>
				<g>
					<path fill="#CBE9E6" d="M190.646,80.431c0,8.69-7.042,15.724-15.724,15.724c-8.69,0-15.724-7.034-15.724-15.724
						c0-8.678,7.034-15.72,15.724-15.72C183.604,64.711,190.646,71.753,190.646,80.431z"/>
				</g>
				<g>
					<path fill="#DFF1EF" d="M162.579,82.374c-2.51-2.942,1.08-10.248,4.018-12.739c2.938-2.507,9.747-4.566,12.242-1.616
						C181.35,70.944,165.082,85.312,162.579,82.374z"/>
				</g>
			</g>
			<g>
				<g>
					<path fill="#CBE9E6" d="M238.22,92.019c0,9.381-7.601,16.979-16.982,16.979c-9.382,0-16.991-7.598-16.991-16.979
						c0-9.377,7.609-16.983,16.991-16.983C230.619,75.036,238.22,82.642,238.22,92.019z"/>
				</g>
				<g>
					<path fill="#DFF1EF" d="M207.908,94.11c-2.712-3.175,1.166-11.056,4.345-13.761c3.179-2.701,10.524-4.92,13.213-1.749
						C228.171,81.771,210.613,97.285,207.908,94.11z"/>
				</g>
			</g>
			<g>
				<path fill="#E84849" d="M211.53,273.257c0,6.397-1.974,11.581-4.438,11.581h-36.367c-2.456,0-4.446-5.184-4.446-11.581l0,0
					c0-6.389,1.99-11.573,4.446-11.573h36.367C209.556,261.684,211.53,266.868,211.53,273.257L211.53,273.257z"/>
			</g>
			<g>
				<g>
					<g>
						<path fill="#FFFFFF" d="M176.274,203.258c-1.22,0-2.23-0.882-2.293-2.009c-0.055-1.166,0.925-2.149,2.184-2.196
							c1.686-0.082,16.477-0.711,17.635-0.711c1.267,0,2.293,0.94,2.293,2.106c0,1.162-1.026,2.106-2.293,2.106
							c-0.793,0-10.858,0.416-17.418,0.692C176.344,203.258,176.313,203.258,176.274,203.258z"/>
					</g>
				</g>
				<g>
					<g>
						<path fill="#FFFFFF" d="M176.274,215.889c-1.22,0-2.23-0.878-2.293-2.002c-0.055-1.17,0.925-2.153,2.184-2.203
							c1.686-0.078,16.477-0.711,17.635-0.711c1.267,0,2.293,0.94,2.293,2.106c0,1.17-1.026,2.106-2.293,2.106
							c-0.793,0-10.858,0.416-17.418,0.696C176.344,215.889,176.313,215.889,176.274,215.889z"/>
					</g>
				</g>
				<g>
					<g>
						<path fill="#FFFFFF" d="M176.274,228.523c-1.22,0-2.23-0.882-2.293-2.013c-0.055-1.158,0.925-2.141,2.184-2.195
							c1.686-0.07,16.477-0.708,17.635-0.708c1.267,0,2.293,0.941,2.293,2.106c0,1.166-1.026,2.106-2.293,2.106
							c-0.793,0-10.858,0.42-17.418,0.704C176.344,228.523,176.313,228.523,176.274,228.523z"/>
					</g>
				</g>
				<g>
					<g>
						<path fill="#FFFFFF" d="M176.274,241.149c-1.22,0-2.23-0.874-2.293-2.005c-0.055-1.158,0.925-2.145,2.184-2.199
							c1.686-0.074,16.477-0.704,17.635-0.704c1.267,0,2.293,0.941,2.293,2.102c0,1.162-1.026,2.106-2.293,2.106
							c-0.793,0-10.858,0.42-17.418,0.7C176.344,241.149,176.313,241.149,176.274,241.149z"/>
					</g>
				</g>
				<g>
					<g>
						<path fill="#FFFFFF" d="M176.274,253.783c-1.22,0-2.23-0.886-2.293-2.005c-0.055-1.166,0.925-2.145,2.184-2.199
							c1.686-0.078,16.477-0.707,17.635-0.707c1.267,0,2.293,0.94,2.293,2.098c0,1.166-1.026,2.114-2.293,2.114
							c-0.793,0-10.858,0.419-17.418,0.692C176.344,253.783,176.313,253.783,176.274,253.783z"/>
					</g>
				</g>
			</g>
		</g>
		<g>
			<g>
				<g>
					<path fill="#039A88" d="M409.494,235.794c19.928-23.368,26.481-44.011,17.892-57.003c-8.045-12.172-28.501-14.651-55.316-7.108
						l-0.031-0.078l-0.07,0.023c-8.573-26.897-21.724-42.231-36.437-42.231c-15.77,0-29.481,17.204-37.961,47.326
						c-9.242-1.955-17.83-3-25.494-3c-17.255,0-29.014,5.036-34.027,14.577c-7.236,13.773,1.329,33.639,23.449,54.873l-0.047,0.055
						l0.055,0.051c-19.882,23.348-26.411,43.969-17.838,56.948c4.974,7.524,14.542,11.496,27.67,11.496c0.008,0,0.008,0,0.008,0
						c8.123,0,17.465-1.554,27.701-4.453c8.581,26.963,21.747,42.352,36.484,42.352c15.762,0,29.473-17.208,37.96-47.334
						c9.242,1.959,17.822,3.008,25.486,3.008l0,0c17.247,0,29.014-5.037,34.028-14.573
						C440.249,276.941,431.661,257.047,409.494,235.794z M367.134,291.825c-6.233-1.64-12.623-3.638-19.144-6.055
						c4.353-2.542,8.659-5.161,12.871-7.935c3.381-2.246,6.707-4.57,9.972-6.941C369.932,278.192,368.673,285.172,367.134,291.825z
						 M305.009,296.263c-1.927-7.462-3.474-15.428-4.578-23.884c4.5,2.712,9.07,5.347,13.726,7.796c4.445,2.34,9,4.516,13.594,6.606
						C319.994,290.582,312.393,293.722,305.009,296.263z M282.29,249.532c-0.808-0.622-1.577-1.259-2.371-1.889
						c-1.686-1.337-3.334-2.685-4.92-4.042c-0.388-0.33-0.762-0.661-1.143-0.991c0.396-0.408,0.77-0.82,1.166-1.232
						c1.554-1.62,3.171-3.233,4.827-4.842c0.793-0.773,1.578-1.546,2.394-2.316c2.207-2.075,4.492-4.131,6.855-6.175
						c0.256-0.222,0.505-0.451,0.762-0.673c-0.008,0.148-0.008,0.295-0.008,0.443c-0.171,3.886-0.264,7.792-0.264,11.69
						c0,4.8,0.163,9.591,0.42,14.372c0.023,0.466,0.016,0.932,0.039,1.407c-0.055-0.039-0.101-0.078-0.156-0.117
						C287.272,253.316,284.746,251.428,282.29,249.532z M323.064,193.247c-4.352,2.538-8.666,5.161-12.871,7.936
						c-3.365,2.227-6.692,4.559-9.972,6.941c0.909-7.298,2.168-14.278,3.7-20.931C310.154,188.829,316.543,190.826,323.064,193.247z
						 M343.731,192.023c3.498-1.706,6.964-3.272,10.392-4.726c0.925-0.392,1.842-0.731,2.759-1.107
						c2.542-1.03,5.06-1.998,7.547-2.884c0.544-0.191,1.08-0.369,1.624-0.556c0.14,0.544,0.28,1.076,0.419,1.624
						c0.63,2.538,1.205,5.145,1.741,7.8c0.195,0.956,0.404,1.889,0.591,2.86c0.676,3.614,1.267,7.318,1.772,11.126
						c0.016,0.136,0.031,0.28,0.047,0.412c-0.388-0.233-0.793-0.439-1.189-0.669c-4.112-2.449-8.285-4.827-12.545-7.069
						c-4.08-2.141-8.239-4.154-12.436-6.093c-0.365-0.167-0.723-0.365-1.088-0.532C343.491,192.151,343.607,192.078,343.731,192.023
						z M372.746,239.505c0,6.529-0.241,13.12-0.731,19.622c-5.114,3.964-10.477,7.803-15.964,11.433
						c-5.977,3.948-12.164,7.679-18.405,11.107c-6.568-2.79-13.096-5.884-19.431-9.211c-6.459-3.389-12.825-7.088-18.942-10.99
						c-0.179-2.168-0.319-4.349-0.451-6.533c-0.078-1.29-0.186-2.573-0.249-3.871c-0.171-3.839-0.264-7.702-0.264-11.558
						c0-3.455,0.078-6.914,0.21-10.357c0.047-1.146,0.132-2.27,0.194-3.408c0.101-1.967,0.218-3.929,0.357-5.876
						c5.145-3.983,10.493-7.815,15.934-11.406c5.969-3.941,12.133-7.664,18.358-11.08c2.091,0.882,4.174,1.811,6.249,2.763
						c1.018,0.459,2.044,0.894,3.055,1.372c3.428,1.612,6.824,3.287,10.174,5.044c3.428,1.803,6.809,3.692,10.15,5.639
						c1.034,0.606,2.044,1.252,3.07,1.873c1.943,1.17,3.871,2.351,5.767,3.56C372.435,224.834,372.746,232.183,372.746,239.505z
						 M380.953,223.692c5.853,4.127,11.254,8.383,16.244,12.716c-4.85,5.145-10.174,10.252-16.019,15.253
						c0.179-4.049,0.287-8.114,0.287-12.156C381.466,234.224,381.257,228.942,380.953,223.692z M420.111,183.602
						c6.086,9.207-0.428,26.745-17.029,46.308c-6.871-5.973-14.573-11.783-22.96-17.336v-0.008l-0.008-0.004
						c-0.241-2.409-0.536-4.772-0.84-7.119c-0.062-0.42-0.093-0.847-0.155-1.263c-0.427-3.125-0.917-6.175-1.454-9.179
						c-0.163-0.905-0.349-1.784-0.521-2.677c-0.404-2.087-0.816-4.147-1.275-6.171c-0.233-1.061-0.49-2.095-0.746-3.136
						c-0.241-0.979-0.451-1.993-0.7-2.957c9.397-2.647,18.071-4.038,25.284-4.038C406.734,176.02,415.968,177.333,420.111,183.602z
						 M335.532,138.118c10.368,0,20.985,13.746,28.144,36.161c-0.995,0.342-2.013,0.746-3.023,1.107
						c-0.964,0.35-1.928,0.696-2.907,1.065c-2.029,0.774-4.073,1.597-6.132,2.46c-0.793,0.33-1.57,0.634-2.363,0.979
						c-2.868,1.236-5.752,2.549-8.659,3.952c-0.256,0.125-0.521,0.264-0.777,0.393c-2.285,1.111-4.578,2.258-6.879,3.47
						l-0.008-0.004l-0.008,0.004c-9.164-3.703-18.172-6.731-26.869-9.012C313.209,153.542,324.339,138.118,335.532,138.118z
						 M245.768,192.354c3.358-6.393,12.7-9.91,26.31-9.91c6.972,0,14.799,0.901,23.317,2.685
						c-2.184,9.467-3.769,19.618-4.733,30.246l-0.008,0.004v0.008c-1.834,1.465-3.606,2.95-5.355,4.434
						c-0.311,0.256-0.63,0.505-0.933,0.762c-2.27,1.947-4.469,3.909-6.606,5.88c-0.684,0.626-1.322,1.259-1.982,1.885
						c-1.484,1.395-2.93,2.794-4.345,4.205c-0.699,0.703-1.383,1.407-2.059,2.114c-0.669,0.688-1.376,1.368-2.021,2.06
						C248.877,218.924,240.638,202.124,245.768,192.354z M271.346,303.002c-7.026,0-16.26-1.314-20.402-7.586
						c-6.086-9.203,0.435-26.745,17.029-46.312c0.622,0.544,1.298,1.08,1.935,1.624c0.661,0.552,1.322,1.111,1.998,1.671
						c1.484,1.228,3.023,2.448,4.586,3.653c0.583,0.466,1.158,0.925,1.757,1.38c2.168,1.655,4.399,3.295,6.692,4.912
						c0.249,0.179,0.513,0.35,0.769,0.528c1.718,1.197,3.443,2.394,5.223,3.568v0.016h0.008c1.182,11.612,3.093,22.517,5.697,32.504
						C287.233,301.611,278.559,303.002,271.346,303.002L271.346,303.002z M335.532,340.9c-10.369,0-20.993-13.749-28.152-36.165
						c9.933-3.396,20.247-7.896,30.74-13.423h0.008h0.008c9.164,3.7,18.172,6.731,26.869,9.016
						C357.846,325.472,346.724,340.9,335.532,340.9z M425.287,286.664c-3.357,6.389-12.708,9.91-26.31,9.91
						c-6.972,0-14.799-0.902-23.317-2.682c2.184-9.467,3.77-19.61,4.734-30.242l0.008-0.008v-0.016
						c8.659-6.922,16.47-14.08,23.302-21.336C422.178,260.098,430.417,276.894,425.287,286.664z"/>
				</g>
			</g>
			<g>
				<g>
					<path fill="#00B39A" d="M356.175,136.987c-6.988,0-12.654,5.666-12.654,12.658c0,6.984,5.666,12.65,12.654,12.65
						c6.995,0,12.653-5.666,12.653-12.65C368.828,142.653,363.17,136.987,356.175,136.987z"/>
				</g>
			</g>
			<g>
				<g>
					<path fill="#00B39A" d="M267.88,292.874c-6.996,0-12.654,5.658-12.654,12.654c0,6.98,5.658,12.646,12.654,12.646
						c6.995,0,12.653-5.666,12.653-12.646C280.534,298.533,274.875,292.874,267.88,292.874z"/>
				</g>
			</g>
			<g>
				<g>
					<path fill="#00B39A" d="M377.977,248.175c-6.988,0-12.654,5.662-12.654,12.661c0,6.98,5.666,12.646,12.654,12.646
						c6.995,0,12.654-5.666,12.654-12.646C390.63,253.837,384.972,248.175,377.977,248.175z"/>
				</g>
			</g>
		</g>
	</g>
</g>
</svg>
